<?xml version="1.0" encoding="UTF-8" standalone="no"?>
<svg
   xmlns:dc="http://purl.org/dc/elements/1.1/"
   xmlns:cc="http://creativecommons.org/ns#"
   xmlns:rdf="http://www.w3.org/1999/02/22-rdf-syntax-ns#"
   xmlns:svg="http://www.w3.org/2000/svg"
   xmlns="http://www.w3.org/2000/svg"
   viewBox="0 0 800 499.04001"
   height="37.5"
   width="60"
   xml:space="preserve"
   id="svg2"
   version="1.1"><metadata
     id="metadata8"><rdf:RDF><cc:Work
         rdf:about=""><dc:format>image/svg+xml</dc:format><dc:type
           rdf:resource="http://purl.org/dc/dcmitype/StillImage" /></cc:Work></rdf:RDF></metadata><defs
     id="defs6" /><g
     transform="matrix(1.3333333,0,0,-1.3333333,0,499.04)"
     id="g10"><g
       transform="scale(0.1)"
       id="g12"><path
         id="path14"
         style="fill:#ffffff;fill-opacity:1;fill-rule:nonzero;stroke:none"
         d="m 4125.2,3717.69 c 15.78,15.52 37.49,25.14 61.35,25.14 h 1083.88 c 48.34,0 87.53,-39.26 87.53,-87.61 0,-28.4 -13.55,-53.65 -34.49,-69.63 L 3732.37,2200.43 c -15.86,-15.82 -37.72,-25.6 -61.89,-25.6 -25.71,0 -48.81,11.05 -64.82,28.64 l -541.94,471.72 c -14.08,15.56 -22.71,36.19 -22.71,58.82 0,26.9 12.09,50.96 31.26,67.09 l 1052.93,916.59" /><path
         id="path16"
         style="fill:#ffffff;fill-opacity:1;fill-rule:nonzero;stroke:none"
         d="M 4125.2,25.1719 C 4140.98,9.62109 4162.69,0 4186.55,0 h 1083.88 c 48.34,0 87.53,39.2617 87.53,87.6094 0,28.4026 -13.55,53.6526 -34.49,69.6606 l -1591.1,1385.17 c -15.86,15.78 -37.72,25.56 -61.89,25.56 -25.71,0 -48.81,-11.09 -64.82,-28.63 l -541.94,-471.74 c -14.08,-15.55 -22.71,-36.18 -22.71,-58.81 0,-26.941 12.09,-50.961 31.26,-67.129 L 4125.2,25.1719" /><path
         id="path18"
         style="fill:#a3d71d;fill-opacity:1;fill-rule:nonzero;stroke:none"
         d="M 1231.91,23.0117 C 1216.36,8.78125 1195.58,0 1172.79,0 H 87.5234 C 39.1836,0 0,39.2617 0,87.6094 0,111.77 9.77344,133.629 25.6328,149.41 L 1927.35,1804.48 c 19.09,16.05 31.17,40.1 31.17,67.01 0,25.44 -10.85,48.26 -28.1,64.24 L 31.0195,3588.45 C 12.0039,3604.46 0,3628.4 0,3655.22 c 0,48.35 39.1836,87.61 87.5234,87.61 H 1172.79 c 22.86,0 43.72,-8.78 59.27,-23.13 L 3279.42,1937.58 c 18.55,-16.01 30.25,-39.64 30.25,-66.09 0,-26.52 -11.78,-50.31 -30.4,-66.4 L 1231.91,23.0117" /><path
         id="path20"
         style="fill:#ffffff;fill-opacity:1;fill-rule:nonzero;stroke:none"
         d="m 5504.04,251.84 h -72.44 c -13.64,0 -24.28,11.082 -24.28,24.301 0,13.199 10.64,24.281 24.28,24.281 h 198.15 c 13.2,0 23.87,-11.082 23.87,-24.281 0,-13.219 -10.67,-24.301 -23.87,-24.301 h -72.87 V 26 c 0,-14.4805 -11.94,-26 -26.42,-26 -14.49,0 -26.42,11.5195 -26.42,26 v 225.84" /><path
         id="path22"
         style="fill:#ffffff;fill-opacity:1;fill-rule:nonzero;stroke:none"
         d="m 5706.84,275.711 c 0,14.48 11.49,26.418 26.42,26.418 h 5.54 c 11.5,0 19.18,-5.957 24.28,-14.07 l 90.35,-141.469 90.76,141.898 c 5.54,8.953 13.2,13.641 23.85,13.641 h 5.54 c 14.92,0 26.42,-11.938 26.42,-26.418 L 6000,26 c 0,-14.4805 -11.5,-26 -26.42,-26 -14.05,0 -25.99,11.9297 -25.99,26 V 204.969 L 5874.72,95.4492 c -5.54,-8.5078 -12.35,-13.6406 -22.16,-13.6406 -9.36,0 -16.19,5.1328 -21.73,13.6406 L 5758.39,204.121 V 25.5703 C 5758.39,11.0781 5746.89,0 5732.41,0 c -14.49,0 -25.57,11.0781 -25.57,25.5703 V 275.711" /></g></g></svg>
