<?xml version="1.0" encoding="UTF-8" standalone="no"?>
<svg
   xmlns:dc="http://purl.org/dc/elements/1.1/"
   xmlns:cc="http://creativecommons.org/ns#"
   xmlns:rdf="http://www.w3.org/1999/02/22-rdf-syntax-ns#"
   xmlns:svg="http://www.w3.org/2000/svg"
   xmlns="http://www.w3.org/2000/svg"
   viewBox="0 0 933.33331 113.8"
   height="75.108"
   width="615.99998"
   xml:space="preserve"
   id="svg2"
   version="1.1"><metadata
     id="metadata8"><rdf:RDF><cc:Work
         rdf:about=""><dc:format>image/svg+xml</dc:format><dc:type
           rdf:resource="http://purl.org/dc/dcmitype/StillImage" /></cc:Work></rdf:RDF></metadata><defs
     id="defs6" /><g
     transform="matrix(1.3333333,0,0,-1.3333333,0,113.8)"
     id="g10"><g
       transform="scale(0.1)"
       id="g12"><path
         id="path14"
         style="fill:#254aa5;fill-opacity:1;fill-rule:nonzero;stroke:none"
         d="m 5398.83,847.848 h -174.94 c -10.64,0 -19.27,-8.606 -19.27,-19.243 V 25.3594 c 0,-10.6094 8.63,-19.26565 19.27,-19.26565 h 174.94 c 10.63,0 19.3,8.65625 19.3,19.26565 V 828.605 c 0,10.637 -8.67,19.243 -19.3,19.243" /><path
         id="path16"
         style="fill:#254aa5;fill-opacity:1;fill-rule:nonzero;stroke:none"
         d="m 6772.99,121.355 h -33.14 c -6.25,0 -11.13,5.075 -11.13,11.133 0,6.039 4.88,11.114 11.13,11.114 h 90.68 c 6.05,0 10.93,-5.075 10.93,-11.114 0,-6.058 -4.88,-11.133 -10.93,-11.133 h -33.34 V 18.0039 c 0,-6.6289 -5.47,-11.91015 -12.1,-11.91015 -6.63,0 -12.1,5.28125 -12.1,11.91015 V 121.355" /><path
         id="path18"
         style="fill:#254aa5;fill-opacity:1;fill-rule:nonzero;stroke:none"
         d="m 6865.82,132.277 c 0,6.633 5.26,12.102 12.1,12.102 h 2.52 c 5.27,0 8.78,-2.734 11.12,-6.438 l 41.34,-64.7457 41.55,64.9377 c 2.53,4.101 6.04,6.246 10.92,6.246 h 2.53 c 6.82,0 12.1,-5.469 12.1,-12.102 V 18.0039 c 0,-6.6289 -5.28,-11.91015 -12.1,-11.91015 -6.42,0 -11.89,5.46875 -11.89,11.91015 v 81.9024 l -33.36,-50.1172 c -2.53,-3.8946 -5.65,-6.25 -10.13,-6.25 -4.29,0 -7.43,2.3554 -9.96,6.25 l -33.15,49.7343 V 17.7969 c 0,-6.6289 -5.26,-11.70315 -11.89,-11.70315 -6.63,0 -11.7,5.07425 -11.7,11.70315 V 132.277" /><path
         id="path20"
         style="fill:#254aa5;fill-opacity:1;fill-rule:nonzero;stroke:none"
         d="m 2051.63,847.813 h -148.7 c -17.91,0 -32.44,-14.524 -32.44,-32.442 0,0 0,-511.516 0,-545.824 0,-57.582 -80.35,-76.07 -178.92,-76.07 -96.82,0 -110.52,0 -110.52,0 0,0 -13.71,0 -110.52,0 -98.58,0 -178.93,18.488 -178.93,76.07 0,34.308 0,545.824 0,545.824 0,17.918 -14.52,32.442 -32.44,32.442 h -148.69 c -17.92,0 -32.44,-14.524 -32.44,-32.442 0,0 0.06,-462.035 0.06,-558.43 0,-96.39 41.94,-157.2926 121.76,-205.1597 79.81,-47.86724 265.78,-45.70317 320.93,-45.70317 55.14,0 60.27,0 60.27,0 0,0 5.12,0 60.27,0 55.14,0 241.11,-2.16407 320.92,45.70317 79.82,47.8671 121.76,108.7697 121.76,205.1597 0,96.395 0.07,558.43 0.07,558.43 0,17.918 -14.53,32.442 -32.44,32.442" /><path
         id="path22"
         style="fill:#254aa5;fill-opacity:1;fill-rule:nonzero;stroke:none"
         d="m 6414.76,842.16 c 3.54,3.488 8.43,5.653 13.79,5.653 h 243.75 c 10.88,0 19.69,-8.829 19.69,-19.704 0,-6.386 -3.05,-12.062 -7.76,-15.656 L 6326.41,500.945 c -3.56,-3.558 -8.48,-5.757 -13.91,-5.757 -5.79,0 -10.98,2.484 -14.58,6.441 l -121.88,106.086 c -3.17,3.496 -5.1,8.137 -5.1,13.226 0,6.051 2.71,11.461 7.02,15.086 l 236.8,206.133" /><path
         id="path24"
         style="fill:#254aa5;fill-opacity:1;fill-rule:nonzero;stroke:none"
         d="m 6414.76,11.7539 c 3.54,-3.49609 8.43,-5.66015 13.79,-5.66015 h 243.75 c 10.88,0 19.69,8.82815 19.69,19.70315 0,6.3867 -3.05,12.0625 -7.76,15.664 L 6326.41,352.969 c -3.56,3.551 -8.48,5.75 -13.91,5.75 -5.79,0 -10.98,-2.492 -14.58,-6.442 L 6176.04,246.191 c -3.17,-3.496 -5.1,-8.136 -5.1,-13.226 0,-6.059 2.71,-11.461 7.02,-15.098 l 236.8,-206.1131" /><path
         id="path26"
         style="fill:#a3d71d;fill-opacity:1;fill-rule:nonzero;stroke:none"
         d="m 5764.09,11.2695 c -3.5,-3.20309 -8.17,-5.17575 -13.3,-5.17575 h -244.06 c -10.87,0 -19.68,8.82815 -19.68,19.70315 0,5.4336 2.2,10.3476 5.76,13.8984 l 427.68,372.2027 c 4.29,3.61 7.01,9.02 7.01,15.071 0,5.722 -2.44,10.855 -6.32,14.449 l -427.16,371.676 c -4.27,3.601 -6.97,8.984 -6.97,15.015 0,10.875 8.81,19.704 19.68,19.704 h 244.06 c 5.15,0 9.84,-1.973 13.34,-5.204 l 460.42,-400.777 c 4.17,-3.602 6.8,-8.914 6.8,-14.863 0,-5.961 -2.64,-11.313 -6.83,-14.93 L 5764.09,11.2695" /><path
         id="path28"
         style="fill:#254aa5;fill-opacity:1;fill-rule:nonzero;stroke:none"
         d="m 2721.24,640.762 c 0,10.875 8.81,19.668 19.68,19.668 h 302.74 c 17.92,0 32.45,14.523 32.45,32.441 v 122.5 c 0,17.918 -14.53,32.442 -32.45,32.442 h -858.35 c -17.92,0 -32.45,-14.524 -32.45,-32.442 v -122.5 c 0,-17.918 14.53,-32.441 32.45,-32.441 h 302.74 c 10.87,0 19.68,-8.793 19.68,-19.668 V 38.5352 c 0,-17.9336 14.53,-32.44145 32.45,-32.44145 h 148.13 c 17.92,0 32.44,14.50785 32.44,32.44145 l 0.49,602.2268" /><path
         id="path30"
         style="fill:#254aa5;fill-opacity:1;fill-rule:nonzero;stroke:none"
         d="m 772.375,325.531 c 2.676,-2.215 5.871,-4.035 9.637,-4.035 7.511,0 13.613,6.078 13.613,13.59 V 815.43 c 0,17.918 14.527,32.445 32.441,32.445 h 148.625 c 17.918,0 32.439,-14.527 32.439,-32.445 0,0 0,-624.774 0,-695.821 C 1009.13,48.5938 981.406,17.5703 954.266,5.66016 927.117,-6.25 844.781,-1.57422 795.625,41.2188 746.469,84.0117 263.148,504.77 263.148,504.77 c 0,0 -28.496,24.937 -30.503,26.511 -2.008,1.578 -4.543,2.52 -7.305,2.52 -6.535,0 -11.832,-5.297 -11.832,-11.832 V 38.5352 c 0,-17.918 -14.528,-32.44145 -32.442,-32.44145 H 32.4414 C 14.5234,6.09375 0,20.6172 0,38.5352 c 0,0 0,624.3008 0,695.3238 0,71.02 27.7266,102.043 54.8711,113.954 27.1445,11.91 109.4809,7.253 158.6369,-35.543 49.156,-42.793 532.476,-463.559 532.476,-463.559 0,0 24.688,-21.762 26.391,-23.18" /><path
         id="path32"
         style="fill:#254aa5;fill-opacity:1;fill-rule:nonzero;stroke:none"
         d="m 4898.67,325.531 c 2.68,-2.215 5.87,-4.035 9.64,-4.035 7.52,0 13.61,6.078 13.61,13.59 V 815.43 c 0,17.918 14.53,32.445 32.44,32.445 h 148.62 c 17.92,0 32.45,-14.527 32.45,-32.445 0,0 0,-624.774 0,-695.821 0,-71.0152 -27.72,-102.0387 -54.86,-113.94884 C 5053.42,-6.25 4971.09,-1.57422 4921.92,41.2188 4872.75,84.0117 4389.44,504.77 4389.44,504.77 c 0,0 -28.49,24.937 -30.5,26.511 -2.01,1.578 -4.54,2.52 -7.31,2.52 -6.54,0 -11.84,-5.297 -11.84,-11.832 V 38.5352 c 0,-17.918 -14.5,-32.44145 -32.44,-32.44145 h -148.6 c -17.94,0 -32.45,14.52345 -32.45,32.44145 0,0 0,624.3008 0,695.3238 0,71.02 27.72,102.043 54.86,113.954 27.15,11.91 109.48,7.253 158.63,-35.543 49.17,-42.793 532.48,-463.559 532.48,-463.559 0,0 24.69,-21.762 26.4,-23.18" /><path
         id="path34"
         style="fill:#254aa5;fill-opacity:1;fill-rule:nonzero;stroke:none"
         d="m 5204.62,815.371 c 0,17.918 14.53,32.442 32.45,32.442 h 148.62 c 17.92,0 32.44,-14.524 32.44,-32.442 V 38.5352 c 0,-17.918 -14.52,-32.44145 -32.44,-32.44145 h -148.62 c -17.92,0 -32.45,14.52345 -32.45,32.44145 V 815.371" /><path
         id="path36"
         style="fill:#254aa5;fill-opacity:1;fill-rule:nonzero;stroke:none"
         d="m 3532.21,411.141 h -217.45 c -6.54,0 -11.84,5.285 -11.84,11.824 0,3.262 1.32,6.211 3.46,8.351 l 106.97,154.493 c 0.59,0.976 1.57,1.597 2.42,2.363 0.65,0.605 1.16,1.363 1.94,1.805 1.43,0.796 3.11,1.136 4.82,1.281 0.34,0.039 0.61,0.246 0.96,0.254 0.34,-0.008 0.61,-0.215 0.95,-0.254 1.71,-0.145 3.39,-0.485 4.82,-1.281 0.78,-0.442 1.29,-1.2 1.95,-1.805 0.84,-0.766 1.82,-1.387 2.41,-2.363 l 106.97,-154.493 c 2.13,-2.14 3.46,-5.089 3.46,-8.351 0,-6.539 -5.29,-11.824 -11.84,-11.824 z M 4052.5,38.4844 3526.74,797.867 l 0.02,0.035 c -22.59,32.805 -60.42,54.309 -103.27,54.309 h -0.01 c -42.85,0 -80.68,-21.504 -103.27,-54.309 l 0.02,-0.035 -525.76,-759.3826 c -2.89,-3.4297 -4.64,-7.8594 -4.64,-12.7071 0,-10.871 8.81,-19.69917 19.68,-19.69917 h 192.25 c 7.32,0 13.68,3.98047 17.08,9.89847 L 3154.9,212.57 c 3.17,6.614 9.93,11.188 17.76,11.188 h 501.65 c 7.84,0 14.59,-4.574 17.76,-11.188 L 3828.12,15.9766 c 3.4,-5.918 9.77,-9.89847 17.09,-9.89847 h 192.25 c 10.87,0 19.68,8.82817 19.68,19.69917 0,4.8477 -1.75,9.2774 -4.64,12.7071" /></g></g></svg>
